<svg width="427" height="61" viewBox="0 0 427 61" fill="none" xmlns="http://www.w3.org/2000/svg">
<path d="M93.05 48V14.65H97.05V48H93.05ZM104.559 48V24.15H108.109L108.359 26.05C109.159 25.4833 110.193 24.9333 111.459 24.4C112.726 23.8333 114.109 23.55 115.609 23.55C116.876 23.55 118.093 23.7667 119.259 24.2C120.459 24.6333 121.459 25.4333 122.259 26.6C123.259 25.7667 124.476 25.05 125.909 24.45C127.343 23.85 128.909 23.55 130.609 23.55C132.276 23.55 133.659 23.7833 134.759 24.25C135.893 24.6833 136.776 25.3333 137.409 26.2C138.076 27.0333 138.543 28.0833 138.809 29.35C139.076 30.5833 139.209 32 139.209 33.6V48H135.309V33.1C135.309 31.1 134.926 29.55 134.159 28.45C133.393 27.3167 131.993 26.75 129.959 26.75C129.293 26.75 128.626 26.85 127.959 27.05C127.293 27.2167 126.659 27.4333 126.059 27.7C125.493 27.9667 124.959 28.25 124.459 28.55C123.993 28.85 123.593 29.1333 123.259 29.4C123.426 29.9667 123.543 30.5667 123.609 31.2C123.709 31.8 123.759 32.6 123.759 33.6V48H119.909V33.1C119.909 32.2333 119.826 31.4167 119.659 30.65C119.526 29.8833 119.259 29.2167 118.859 28.65C118.493 28.05 117.993 27.5833 117.359 27.25C116.726 26.9167 115.909 26.75 114.909 26.75C113.743 26.75 112.576 27.05 111.409 27.65C110.276 28.2167 109.276 28.8 108.409 29.4V48H104.559ZM145.966 57.45V24.15H149.466L149.766 25.9C150.799 25.0667 151.882 24.4667 153.016 24.1C154.182 23.7333 155.399 23.55 156.666 23.55C158.432 23.55 159.932 23.8833 161.166 24.55C162.399 25.2167 163.399 26.1167 164.166 27.25C164.966 28.3833 165.532 29.7 165.866 31.2C166.232 32.6667 166.416 34.2 166.416 35.8C166.416 37.7333 166.116 39.4833 165.516 41.05C164.916 42.6167 164.082 43.9667 163.016 45.1C161.982 46.2 160.732 47.05 159.266 47.65C157.799 48.25 156.216 48.55 154.516 48.55C152.649 48.55 151.082 48.2833 149.816 47.75V57.45H145.966ZM149.816 44.4C150.182 44.6667 150.716 44.9167 151.416 45.15C152.116 45.35 152.899 45.45 153.766 45.45C155.032 45.45 156.199 45.2333 157.266 44.8C158.366 44.3667 159.299 43.75 160.066 42.95C160.866 42.15 161.482 41.1667 161.916 40C162.349 38.8 162.566 37.45 162.566 35.95C162.566 34.85 162.449 33.75 162.216 32.65C161.982 31.5167 161.599 30.5167 161.066 29.65C160.532 28.75 159.816 28.0333 158.916 27.5C158.049 26.9333 156.966 26.65 155.666 26.65C154.599 26.65 153.566 26.8833 152.566 27.35C151.566 27.8167 150.649 28.4333 149.816 29.2V44.4ZM185.436 48L185.236 45.95C184.403 46.7833 183.436 47.4333 182.336 47.9C181.27 48.3333 180.086 48.55 178.786 48.55C177.753 48.55 176.736 48.3833 175.736 48.05C174.77 47.75 173.903 47.3 173.136 46.7C172.403 46.0667 171.803 45.2833 171.336 44.35C170.87 43.4167 170.636 42.3333 170.636 41.1C170.636 39.4 171.086 38 171.986 36.9C172.92 35.8 174.086 34.9333 175.486 34.3C176.886 33.6333 178.436 33.1667 180.136 32.9C181.836 32.6333 183.486 32.5 185.086 32.5V32.2C185.086 30.2 184.653 28.7667 183.786 27.9C182.953 27.0333 181.736 26.6 180.136 26.6C179.036 26.6 178.02 26.85 177.086 27.35C176.186 27.8167 175.42 28.45 174.786 29.25L172.086 27.35C173.053 26.05 174.186 25.1 175.486 24.5C176.82 23.8667 178.486 23.55 180.486 23.55C183.153 23.55 185.22 24.2333 186.686 25.6C188.186 26.9667 188.936 29.25 188.936 32.45V48H185.436ZM185.086 35.55C183.986 35.5833 182.82 35.6667 181.586 35.8C180.353 35.9333 179.203 36.2 178.136 36.6C177.103 36.9667 176.236 37.5167 175.536 38.25C174.87 38.9833 174.536 39.95 174.536 41.15C174.536 41.9167 174.686 42.5667 174.986 43.1C175.286 43.6333 175.653 44.0833 176.086 44.45C176.553 44.7833 177.053 45.0333 177.586 45.2C178.153 45.3333 178.703 45.4 179.236 45.4C180.403 45.4 181.47 45.1667 182.436 44.7C183.436 44.2 184.32 43.6167 185.086 42.95V35.55ZM214.623 42.9C213.689 44.8333 212.406 46.2667 210.773 47.2C209.173 48.1 207.473 48.55 205.673 48.55C204.273 48.55 202.889 48.3 201.523 47.8C200.189 47.3 199.006 46.5333 197.973 45.5C196.939 44.4667 196.106 43.1833 195.473 41.65C194.839 40.0833 194.523 38.25 194.523 36.15C194.523 33.9167 194.839 32 195.473 30.4C196.106 28.8 196.939 27.5 197.973 26.5C199.006 25.4667 200.173 24.7167 201.473 24.25C202.773 23.7833 204.073 23.55 205.373 23.55C206.706 23.55 207.873 23.75 208.873 24.15C209.906 24.55 210.773 25.05 211.473 25.65C212.206 26.25 212.789 26.8833 213.223 27.55C213.689 28.2167 214.023 28.8167 214.223 29.35L211.373 31.15C210.673 29.55 209.789 28.4 208.723 27.7C207.656 27 206.539 26.65 205.373 26.65C204.473 26.65 203.606 26.8667 202.773 27.3C201.939 27.7 201.189 28.3 200.523 29.1C199.856 29.9 199.323 30.8833 198.923 32.05C198.523 33.2167 198.323 34.55 198.323 36.05C198.323 37.55 198.523 38.8833 198.923 40.05C199.323 41.2167 199.856 42.2 200.523 43C201.223 43.8 202.023 44.4167 202.923 44.85C203.856 45.25 204.839 45.45 205.873 45.45C207.039 45.45 208.156 45.1167 209.223 44.45C210.323 43.7833 211.223 42.7 211.923 41.2L214.623 42.9ZM224.754 42.55C224.754 43.7167 224.971 44.5 225.404 44.9C225.871 45.2667 226.454 45.45 227.154 45.45C227.788 45.45 228.388 45.3167 228.954 45.05C229.521 44.7833 230.038 44.4667 230.504 44.1L232.004 46.7C231.238 47.2667 230.471 47.7167 229.704 48.05C228.971 48.3833 227.921 48.55 226.554 48.55C224.754 48.55 223.371 48.1 222.404 47.2C221.438 46.2667 220.954 44.85 220.954 42.95V27.3H216.854V24.15H220.954V17.65H224.804V24.15H231.054V27.3H224.754V42.55ZM242.32 48L255.17 14.65H257.62L270.72 48H266.37L262.42 37.7H250.32L246.52 48H242.32ZM251.62 34.15H261.12L256.27 21.4L251.62 34.15ZM274.188 48V24.15H277.738L277.988 26.05C278.955 25.3167 280.088 24.7167 281.388 24.25C282.722 23.7833 284.105 23.55 285.538 23.55C288.805 23.55 291.105 24.3667 292.438 26C293.805 27.6 294.488 29.9833 294.488 33.15V48H290.638V33.05C290.638 31.05 290.188 29.4833 289.288 28.35C288.388 27.2167 286.922 26.65 284.888 26.65C283.622 26.65 282.372 26.9333 281.138 27.5C279.938 28.0333 278.905 28.6333 278.038 29.3V48H274.188ZM314.489 48L314.289 45.95C313.456 46.7833 312.489 47.4333 311.389 47.9C310.322 48.3333 309.139 48.55 307.839 48.55C306.806 48.55 305.789 48.3833 304.789 48.05C303.822 47.75 302.956 47.3 302.189 46.7C301.456 46.0667 300.856 45.2833 300.389 44.35C299.922 43.4167 299.689 42.3333 299.689 41.1C299.689 39.4 300.139 38 301.039 36.9C301.972 35.8 303.139 34.9333 304.539 34.3C305.939 33.6333 307.489 33.1667 309.189 32.9C310.889 32.6333 312.539 32.5 314.139 32.5V32.2C314.139 30.2 313.706 28.7667 312.839 27.9C312.006 27.0333 310.789 26.6 309.189 26.6C308.089 26.6 307.072 26.85 306.139 27.35C305.239 27.8167 304.472 28.45 303.839 29.25L301.139 27.35C302.106 26.05 303.239 25.1 304.539 24.5C305.872 23.8667 307.539 23.55 309.539 23.55C312.206 23.55 314.272 24.2333 315.739 25.6C317.239 26.9667 317.989 29.25 317.989 32.45V48H314.489ZM314.139 35.55C313.039 35.5833 311.872 35.6667 310.639 35.8C309.406 35.9333 308.256 36.2 307.189 36.6C306.156 36.9667 305.289 37.5167 304.589 38.25C303.922 38.9833 303.589 39.95 303.589 41.15C303.589 41.9167 303.739 42.5667 304.039 43.1C304.339 43.6333 304.706 44.0833 305.139 44.45C305.606 44.7833 306.106 45.0333 306.639 45.2C307.206 45.3333 307.756 45.4 308.289 45.4C309.456 45.4 310.522 45.1667 311.489 44.7C312.489 44.2 313.372 43.6167 314.139 42.95V35.55ZM324.725 48V14.65H328.575V48H324.725ZM333.268 54.3C333.634 54.4333 334.084 54.55 334.618 54.65C335.184 54.7833 335.751 54.85 336.318 54.85C337.084 54.85 337.684 54.6667 338.118 54.3C338.551 53.9333 339.001 53.2167 339.468 52.15L341.418 47.4L332.018 24.15H336.418L343.468 42.5L350.518 24.15H354.668L342.468 54.3C341.868 55.7667 341.018 56.7667 339.918 57.3C338.851 57.8333 337.734 58.1 336.568 58.1C335.801 58.1 334.984 57.9833 334.118 57.75C333.284 57.55 332.634 57.35 332.168 57.15L333.268 54.3ZM363.524 42.55C363.524 43.7167 363.74 44.5 364.174 44.9C364.64 45.2667 365.224 45.45 365.924 45.45C366.557 45.45 367.157 45.3167 367.724 45.05C368.29 44.7833 368.807 44.4667 369.274 44.1L370.774 46.7C370.007 47.2667 369.24 47.7167 368.474 48.05C367.74 48.3833 366.69 48.55 365.324 48.55C363.524 48.55 362.14 48.1 361.174 47.2C360.207 46.2667 359.724 44.85 359.724 42.95V27.3H355.624V24.15H359.724V17.65H363.574V24.15H369.824V27.3H363.524V42.55ZM376.48 20.35C375.78 20.35 375.18 20.0833 374.68 19.55C374.18 18.9833 373.93 18.3 373.93 17.5C373.93 16.7333 374.18 16.0667 374.68 15.5C375.18 14.9333 375.78 14.65 376.48 14.65C377.18 14.65 377.78 14.9333 378.28 15.5C378.78 16.0667 379.03 16.7333 379.03 17.5C379.03 18.3 378.78 18.9833 378.28 19.55C377.78 20.0833 377.18 20.35 376.48 20.35ZM374.53 48V24.15H378.43V48H374.53ZM404.271 42.9C403.338 44.8333 402.054 46.2667 400.421 47.2C398.821 48.1 397.121 48.55 395.321 48.55C393.921 48.55 392.538 48.3 391.171 47.8C389.838 47.3 388.654 46.5333 387.621 45.5C386.588 44.4667 385.754 43.1833 385.121 41.65C384.488 40.0833 384.171 38.25 384.171 36.15C384.171 33.9167 384.488 32 385.121 30.4C385.754 28.8 386.588 27.5 387.621 26.5C388.654 25.4667 389.821 24.7167 391.121 24.25C392.421 23.7833 393.721 23.55 395.021 23.55C396.354 23.55 397.521 23.75 398.521 24.15C399.554 24.55 400.421 25.05 401.121 25.65C401.854 26.25 402.438 26.8833 402.871 27.55C403.338 28.2167 403.671 28.8167 403.871 29.35L401.021 31.15C400.321 29.55 399.438 28.4 398.371 27.7C397.304 27 396.188 26.65 395.021 26.65C394.121 26.65 393.254 26.8667 392.421 27.3C391.588 27.7 390.838 28.3 390.171 29.1C389.504 29.9 388.971 30.8833 388.571 32.05C388.171 33.2167 387.971 34.55 387.971 36.05C387.971 37.55 388.171 38.8833 388.571 40.05C388.971 41.2167 389.504 42.2 390.171 43C390.871 43.8 391.671 44.4167 392.571 44.85C393.504 45.25 394.488 45.45 395.521 45.45C396.688 45.45 397.804 45.1167 398.871 44.45C399.971 43.7833 400.871 42.7 401.571 41.2L404.271 42.9ZM410.303 42.1C410.869 43.1667 411.586 44 412.453 44.6C413.353 45.1667 414.553 45.45 416.053 45.45C419.319 45.45 420.953 44.2833 420.953 41.95C420.953 41.25 420.836 40.6667 420.603 40.2C420.403 39.7 420.053 39.2667 419.553 38.9C419.086 38.5 418.469 38.1333 417.703 37.8C416.936 37.4333 416.003 37.05 414.903 36.65C413.703 36.25 412.686 35.8333 411.853 35.4C411.019 34.9333 410.336 34.4333 409.803 33.9C409.269 33.3667 408.869 32.7667 408.603 32.1C408.369 31.4333 408.253 30.65 408.253 29.75C408.253 27.8167 408.953 26.3 410.353 25.2C411.786 24.1 413.669 23.55 416.003 23.55C417.936 23.55 419.553 23.8833 420.853 24.55C422.153 25.1833 423.253 26.1 424.153 27.3L421.453 29.45C420.786 28.65 420.003 27.9833 419.103 27.45C418.203 26.9167 417.186 26.65 416.053 26.65C414.653 26.65 413.603 26.9333 412.903 27.5C412.236 28.0333 411.903 28.7 411.903 29.5C411.903 30 411.986 30.45 412.153 30.85C412.353 31.2167 412.686 31.5667 413.153 31.9C413.619 32.2 414.219 32.5167 414.953 32.85C415.719 33.15 416.686 33.5 417.853 33.9C420.053 34.6667 421.719 35.6333 422.853 36.8C423.986 37.9667 424.553 39.5167 424.553 41.45C424.553 42.5833 424.336 43.6 423.903 44.5C423.469 45.3667 422.869 46.1 422.103 46.7C421.369 47.3 420.486 47.75 419.453 48.05C418.419 48.3833 417.286 48.55 416.053 48.55C413.686 48.55 411.836 48.1167 410.503 47.25C409.169 46.3833 408.103 45.2833 407.303 43.95L410.303 42.1Z" fill="#747678"/>
<path d="M64.3657 61H64.3331C63.8938 61 63.537 60.657 63.537 60.2323C63.537 60.1016 63.5731 59.9731 63.6416 59.8614L69.563 51.8295C72.4418 47.875 72.8892 47.4817 72.8892 43.4323V15.5465C72.8904 14.6917 73.611 14 74.5001 14H79.336C80.2215 14 80.9444 14.6917 80.9444 15.5465V44.3865C80.9444 48.5164 79.6393 50.283 76.9639 53.9112L71.949 60.4279C71.6527 60.7788 71.2959 61 70.7915 61H64.3657Z" fill="#2A6EBB"/>
<path d="M55.2155 28.1165C55.2806 28.0161 55.3932 27.9558 55.5202 27.9558C55.7211 27.9558 55.8834 28.1199 55.8834 28.323L55.8867 47.2659C55.8867 48.1196 56.5722 48.8148 57.419 48.8148H62.0081C62.8526 48.8148 63.537 48.1207 63.537 47.2659V15.5444C63.537 14.6908 62.8515 14 62.0081 14H57.1507C56.6241 14 56.156 14.2689 55.879 14.6863L48.1613 25.6079C48.095 25.6972 47.9857 25.753 47.8698 25.753C47.7462 25.753 47.6369 25.6938 47.5718 25.6001L39.8662 14.6863C39.5891 14.2689 39.1243 14 38.5922 14H33.8685C32.8981 14 32.2037 14.606 32.2037 15.5947V47.2659C32.2037 48.1196 32.8859 48.8148 33.7305 48.8148H38.3207C39.1685 48.8148 39.8519 48.1207 39.8519 47.2659V28.323C39.8519 28.1188 40.0141 27.9558 40.2184 27.9558C40.3442 27.9558 40.4524 28.0161 40.5231 28.1165L46.1697 36.1948C46.4479 36.5731 46.8961 36.8152 47.3962 36.8152H48.3004C48.8038 36.8152 49.252 36.5731 49.5313 36.1948L55.2166 28.1165H55.2155Z" fill="#2A6EBB"/>
<path d="M20.9399 31.0989C20.9399 30.8869 21.1152 30.7798 21.1152 30.7798C22.694 29.8213 25.0527 27.449 25.0527 23.4856C25.0527 17.0049 19.5043 14 14.4352 14H1.53993C0.690083 14 0 14.6885 0 15.5443V47.2661C0 48.1197 0.690083 48.8148 1.53993 48.8148H15.2717C20.505 48.8148 26.1111 45.7496 26.1111 39.549C26.1111 34.6494 22.8926 32.3162 21.1219 31.4169C21.1219 31.4169 20.9388 31.3064 20.9388 31.0989M7.68855 20.5789C7.68855 20.1527 8.03359 19.8012 8.46073 19.8012H11.6238C13.6519 19.8012 17.0723 20.2754 17.0723 23.9197C17.0723 27.564 13.3213 27.9333 11.8102 27.9333H8.45962C8.03248 27.9333 7.68744 27.5896 7.68744 27.1623V20.5789H7.68855ZM14.5905 42.7994C13.9104 42.9076 12.8209 42.9646 11.9999 42.9646H8.46073C8.03248 42.9646 7.68855 42.6198 7.68855 42.1924V35.3691C7.68855 34.9407 8.03248 34.5936 8.46073 34.5936H12.1907C12.913 34.5936 13.9448 34.6651 14.5916 34.8045C15.2373 34.9474 17.9277 35.5867 17.9277 38.9732C17.9277 41.7271 15.2684 42.6867 14.5916 42.8005" fill="#2A6EBB"/>
</svg>
